# Blender3D v244 OBJ File: <memory>
# www.blender3d.org
mtllib apartment.mtl
o Cube
v 0.280800 -0.008592 -0.280800
v 0.280800 -0.008592 0.280800
v -0.280800 -0.008592 0.280800
v -0.280800 -0.008592 -0.280800
v 0.280800 1.198596 -0.280800
v 0.280800 1.198596 0.280800
v -0.280800 1.198596 0.280800
v -0.280800 1.198596 -0.280800
vt 0.000000 0.000000 0.0
vt 0.000000 1.000000 0.0
vt 1.000000 1.000000 0.0
vt 1.000000 0.000000 0.0
vt 0.000000 0.000000 0.0
vt 0.000000 1.000000 0.0
vt 1.000000 1.000000 0.0
vt 1.000000 0.000000 0.0
vt 0.000000 0.000000 0.0
vt 0.000000 1.000000 0.0
vt 1.000000 1.000000 0.0
vt 1.000000 0.000000 0.0
vt 0.000000 1.000000 0.0
vt 0.000000 0.000000 0.0
vt 1.000000 0.000000 0.0
vt 1.000000 1.000000 0.0
vt 0.000000 1.000000 0.0
vt 0.000000 0.000000 0.0
vt 1.000000 0.000000 0.0
vt 1.000000 1.000000 0.0
vn 1.000000 0.000000 0.000000
vn -0.000000 -0.000000 1.000000
vn -1.000000 -0.000000 -0.000000
vn 0.000000 0.000000 -1.000000
vn 0.000000 1.000000 0.000000
usemtl Material_side2.png
s 1
f 1/1/1 5/2/1 6/3/1 2/4/1
f 2/5/2 6/6/2 7/7/2 3/8/2
f 3/9/3 7/10/3 8/11/3 4/12/3
f 5/13/4 1/14/4 4/15/4 8/16/4
usemtl Material_plain2.png
f 5/17/5 8/18/5 7/19/5 6/20/5
