# Blender3D v244 OBJ File: <memory>
# www.blender3d.org
mtllib bootcamp.mtl
o Cube
v 0.239665 -0.003769 -0.226617
v -0.239665 -0.003769 0.226617
v -0.239665 -0.003769 -0.226617
v 0.239665 0.344974 -0.226617
v -0.239665 0.344974 0.226617
v -0.239665 0.344974 -0.226617
v -0.239665 0.224792 -0.128320
v -0.239665 0.224792 0.128320
v -0.239665 -0.003769 0.128320
v -0.239665 -0.003769 -0.128320
v 0.239665 -0.003769 0.226617
v 0.239665 0.344974 0.226617
v 0.239665 0.224792 -0.128320
v 0.239665 0.224792 0.128320
v 0.239665 -0.003769 -0.128320
v 0.239665 -0.003769 0.128320
v -0.382255 0.224792 -0.128320
v -0.382255 -0.003769 -0.128320
v -0.382255 0.224792 0.128320
v -0.382255 -0.003769 0.128320
v 0.382255 0.224792 -0.128320
v 0.382255 0.224792 0.128320
v 0.382255 -0.003769 0.128320
v 0.382255 -0.003769 -0.128320
vt 1.000000 1.000000 0.0
vt 0.000000 1.000000 0.0
vt 0.000000 0.000000 0.0
vt 1.000000 0.000000 0.0
vt 0.000000 1.000000 0.0
vt 0.000000 0.000000 0.0
vt 1.000000 0.000000 0.0
vt 1.000000 1.000000 0.0
vt 0.000000 1.000000 0.0
vt 0.000000 0.000000 0.0
vt 1.000000 0.000000 0.0
vt 1.000000 1.000000 0.0
vt 0.000000 1.000000 0.0
vt 0.000000 0.000000 0.0
vt 1.000000 0.000000 0.0
vt 1.000000 1.000000 0.0
vt 0.000000 1.000000 0.0
vt 0.000000 0.000000 0.0
vt 1.000000 0.000000 0.0
vt 1.000000 1.000000 0.0
vt 0.000000 1.000000 0.0
vt 0.000000 0.000000 0.0
vt 1.000000 0.000000 0.0
vt 1.000000 1.000000 0.0
vt 0.000000 1.000000 0.0
vt 0.000000 0.000000 0.0
vt 1.000000 0.000000 0.0
vt 1.000000 1.000000 0.0
vt 0.000000 1.000000 0.0
vt 0.000000 0.000000 0.0
vt 1.000000 0.000000 0.0
vt 1.000000 1.000000 0.0
vt 0.000000 1.000000 0.0
vt 0.000000 0.000000 0.0
vt 1.000000 0.000000 0.0
vt 1.000000 1.000000 0.0
vt 0.000000 1.000000 0.0
vt 0.000000 0.000000 0.0
vt 1.000000 0.000000 0.0
vt 1.000000 1.000000 0.0
vt 0.000000 1.000000 0.0
vt 0.000000 0.000000 0.0
vt 1.000000 0.000000 0.0
vt 1.000000 1.000000 0.0
vt 0.000000 1.000000 0.0
vt 0.000000 0.000000 0.0
vt 1.000000 0.000000 0.0
vt 1.000000 1.000000 0.0
vt 0.000000 1.000000 0.0
vt 0.000000 0.000000 0.0
vt 1.000000 0.000000 0.0
vt 1.000000 1.000000 0.0
vt 0.000000 1.000000 0.0
vt 0.000000 0.000000 0.0
vt 1.000000 0.000000 0.0
vt 1.000000 1.000000 0.0
vt 0.000000 1.000000 0.0
vt 0.000000 0.000000 0.0
vt 1.000000 0.000000 0.0
vt 1.000000 1.000000 0.0
vt 0.000000 1.000000 0.0
vt 0.000000 0.000000 0.0
vt 1.000000 0.000000 0.0
vt 1.000000 1.000000 0.0
vt 0.000000 1.000000 0.0
vt 0.000000 0.000000 0.0
vt 1.000000 0.000000 0.0
vt 1.000000 1.000000 0.0
vn 0.000000 1.000000 0.000000
vn 1.000000 0.000000 0.000000
vn -1.000000 -0.000000 -0.000000
vn 0.000000 0.000000 -1.000000
vn -0.000000 0.000000 1.000000
usemtl Material_plain3.png
s 1
f 4/1/1 6/2/1 5/3/1 12/4/1
f 4/5/2 12/6/2 14/7/2 13/8/2
f 5/9/3 6/10/3 7/11/3 8/12/3
f 7/13/4 10/14/4 18/15/4 17/16/4
f 9/17/5 8/18/5 19/19/5 20/20/5
f 8/21/1 7/22/1 17/23/1 19/24/1
f 13/25/1 14/26/1 22/27/1 21/28/1
f 14/29/5 16/30/5 23/31/5 22/32/5
f 15/33/4 13/34/4 21/35/4 24/36/4
f 17/37/3 18/38/3 20/39/3 19/40/3
f 21/41/2 22/42/2 23/43/2 24/44/2
f 1/45/4 3/46/4 6/47/4 4/48/4
f 2/49/5 11/50/5 12/51/5 5/52/5
f 14/53/2 12/54/2 11/55/2 16/56/2
f 8/57/3 9/58/3 2/59/3 5/60/3
f 7/61/3 6/62/3 3/63/3 10/64/3
f 1/65/2 4/66/2 13/67/2 15/68/2
